{
	"asset":{
		"generator":"Khronos glTF Blender I/O v4.0.44",
		"version":"2.0"
	},
	"scene":0,
	"scenes":[
		{
			"name":"Scene",
			"nodes":[
				0
			]
		}
	],
	"nodes":[
		{
			"mesh":0,
			"name":"Cube.001",
			"scale":[
				0.019999999552965164,
				0.019999999552965164,
				0.019999999552965164
			],
			"translation":[
				0,
				10,
				0
			]
		}
	],
	"materials":[
		{
			"name":"Default OBJ",
			"pbrMetallicRoughness":{
				"baseColorTexture":{
					"index":0
				},
				"metallicFactor":0.25,
				"roughnessFactor":0.8999999761581421
			}
		}
	],
	"meshes":[
		{
			"name":"Cube.002",
			"primitives":[
				{
					"attributes":{
						"POSITION":0,
						"NORMAL":1,
						"TEXCOORD_0":2
					},
					"indices":3,
					"material":0
				}
			]
		}
	],
	"textures":[
		{
			"sampler":0,
			"source":0
		}
	],
	"images":[
		{
			"mimeType":"image/png",
			"name":"earth_diff",
			"uri":"textures/earth_diff.png"
		}
	],
	"accessors":[
		{
			"bufferView":0,
			"componentType":5126,
			"count":1778,
			"max":[
				500,
				498.32342529296875,
				500
			],
			"min":[
				-499.9999694824219,
				-498.3235168457031,
				-500
			],
			"type":"VEC3"
		},
		{
			"bufferView":1,
			"componentType":5126,
			"count":1778,
			"type":"VEC3"
		},
		{
			"bufferView":2,
			"componentType":5126,
			"count":1778,
			"type":"VEC2"
		},
		{
			"bufferView":3,
			"componentType":5123,
			"count":9216,
			"type":"SCALAR"
		}
	],
	"bufferViews":[
		{
			"buffer":0,
			"byteLength":21336,
			"byteOffset":0,
			"target":34962
		},
		{
			"buffer":0,
			"byteLength":21336,
			"byteOffset":21336,
			"target":34962
		},
		{
			"buffer":0,
			"byteLength":14224,
			"byteOffset":42672,
			"target":34962
		},
		{
			"buffer":0,
			"byteLength":18432,
			"byteOffset":56896,
			"target":34963
		}
	],
	"samplers":[
		{
			"magFilter":9729,
			"minFilter":9987
		}
	],
	"buffers":[
		{
			"byteLength":75328,
			"uri":"scene.bin"
		}
	]
}
