{
	"asset":{
		"generator":"Khronos glTF Blender I/O v4.0.44",
		"version":"2.0"
	},
	"scene":0,
	"scenes":[
		{
			"name":"Scene",
			"nodes":[
				0,
				3
			]
		}
	],
	"nodes":[
		{
			"mesh":0,
			"name":"text",
			"rotation":[
				0.7815583348274231,
				0.03426474332809448,
				-0.044842179864645004,
				0.6212742328643799
			]
		},
		{
			"name":"Bone.001",
			"translation":[
				0,
				0.9999999403953552,
				0
			]
		},
		{
			"children":[
				1
			],
			"name":"Bone"
		},
		{
			"children":[
				2
			],
			"name":"Armature",
			"translation":[
				-0.3217407763004303,
				0.05091993138194084,
				-0.0014848466962575912
			]
		}
	],
	"materials":[
		{
			"doubleSided":true,
			"name":"Material.002",
			"pbrMetallicRoughness":{
				"baseColorFactor":[
					0.800000011920929,
					0.800000011920929,
					0.800000011920929,
					1
				],
				"metallicFactor":0,
				"roughnessFactor":0.5
			}
		}
	],
	"meshes":[
		{
			"name":"Text",
			"primitives":[
				{
					"attributes":{
						"POSITION":0,
						"NORMAL":1,
						"TEXCOORD_0":2
					},
					"indices":3,
					"material":0
				}
			]
		}
	],
	"skins":[
		{
			"inverseBindMatrices":4,
			"joints":[
				2,
				1
			],
			"name":"Armature"
		}
	],
	"accessors":[
		{
			"bufferView":0,
			"componentType":5126,
			"count":478,
			"max":[
				2.1090002059936523,
				0,
				0.009000000543892384
			],
			"min":[
				0.04000000283122063,
				0,
				-0.6910000443458557
			],
			"type":"VEC3"
		},
		{
			"bufferView":1,
			"componentType":5126,
			"count":478,
			"type":"VEC3"
		},
		{
			"bufferView":2,
			"componentType":5126,
			"count":478,
			"type":"VEC2"
		},
		{
			"bufferView":3,
			"componentType":5123,
			"count":1416,
			"type":"SCALAR"
		},
		{
			"bufferView":4,
			"componentType":5126,
			"count":2,
			"type":"MAT4"
		}
	],
	"bufferViews":[
		{
			"buffer":0,
			"byteLength":5736,
			"byteOffset":0,
			"target":34962
		},
		{
			"buffer":0,
			"byteLength":5736,
			"byteOffset":5736,
			"target":34962
		},
		{
			"buffer":0,
			"byteLength":3824,
			"byteOffset":11472,
			"target":34962
		},
		{
			"buffer":0,
			"byteLength":2832,
			"byteOffset":15296,
			"target":34963
		},
		{
			"buffer":0,
			"byteLength":128,
			"byteOffset":18128
		}
	],
	"buffers":[
		{
			"byteLength":18256,
			"uri":"gomera.bin"
		}
	]
}
