{
	"asset":{
		"generator":"Khronos glTF Blender I/O v4.0.44",
		"version":"2.0"
	},
	"extensionsUsed":[
		"KHR_materials_specular",
		"KHR_materials_ior"
	],
	"scene":0,
	"scenes":[
		{
			"name":"Scene",
			"nodes":[
				0,
				1,
				2
			]
		}
	],
	"nodes":[
		{
			"mesh":0,
			"name":"Ostrich",
			"rotation":[
				0.33347028493881226,
				0.6235362887382507,
				-0.6235364675521851,
				0.33347025513648987
			],
			"scale":[
				5.212314128875732,
				5.212314128875732,
				5.212313652038574
			],
			"translation":[
				0,
				-0.02012353390455246,
				-3.14300537109375
			]
		},
		{
			"mesh":1,
			"name":"Giraffe",
			"rotation":[
				0.6991378664970398,
				0.10586029291152954,
				-0.10586031526327133,
				0.6991376876831055
			],
			"scale":[
				3.2205939292907715,
				3.2205939292907715,
				3.2205939292907715
			],
			"translation":[
				0.14748845994472504,
				1.408626675605774,
				-0.2272816151380539
			]
		},
		{
			"mesh":2,
			"name":"Parrot",
			"rotation":[
				0.5968019962310791,
				0.3792458474636078,
				-0.37924590706825256,
				0.5968019366264343
			],
			"scale":[
				0.2253132313489914,
				0.2253132313489914,
				0.225313201546669
			],
			"translation":[
				0.23196208477020264,
				1.5212236642837524,
				2.6392314434051514
			]
		}
	],
	"materials":[
		{
			"doubleSided":true,
			"name":"Default OBJ",
			"normalTexture":{
				"index":0
			},
			"pbrMetallicRoughness":{
				"baseColorTexture":{
					"index":1
				},
				"metallicRoughnessTexture":{
					"index":2
				}
			}
		},
		{
			"doubleSided":true,
			"name":"Giraffev3",
			"normalTexture":{
				"index":3
			},
			"pbrMetallicRoughness":{
				"baseColorTexture":{
					"index":4
				},
				"metallicFactor":0.5227272510528564,
				"metallicRoughnessTexture":{
					"index":5
				}
			}
		},
		{
			"doubleSided":true,
			"extensions":{
				"KHR_materials_specular":{
					"specularFactor":0.44545453786849976
				},
				"KHR_materials_ior":{
					"ior":1.4500000476837158
				}
			},
			"name":"parrot.001",
			"normalTexture":{
				"index":6
			},
			"pbrMetallicRoughness":{
				"baseColorTexture":{
					"index":7
				},
				"metallicFactor":0,
				"metallicRoughnessTexture":{
					"index":8
				}
			}
		}
	],
	"meshes":[
		{
			"name":"scanv3",
			"primitives":[
				{
					"attributes":{
						"POSITION":0,
						"NORMAL":1,
						"TEXCOORD_0":2
					},
					"indices":3,
					"material":0
				}
			]
		},
		{
			"name":"giraffev3",
			"primitives":[
				{
					"attributes":{
						"POSITION":4,
						"NORMAL":5,
						"TEXCOORD_0":6
					},
					"indices":7,
					"material":1
				}
			]
		},
		{
			"name":"papegaaiv3",
			"primitives":[
				{
					"attributes":{
						"POSITION":8,
						"NORMAL":9,
						"TEXCOORD_0":10
					},
					"indices":11,
					"material":2
				}
			]
		}
	],
	"textures":[
		{
			"sampler":0,
			"source":0
		},
		{
			"sampler":0,
			"source":1
		},
		{
			"sampler":0,
			"source":2
		},
		{
			"sampler":0,
			"source":3
		},
		{
			"sampler":0,
			"source":4
		},
		{
			"sampler":0,
			"source":5
		},
		{
			"sampler":0,
			"source":6
		},
		{
			"sampler":0,
			"source":7
		},
		{
			"sampler":0,
			"source":8
		}
	],
	"images":[
		{
			"mimeType":"image/png",
			"name":"normals",
			"uri":"textures/normals.png"
		},
		{
			"mimeType":"image/png",
			"name":"Diffuse",
			"uri":"textures/Diffuse.png"
		},
		{
			"mimeType":"image/png",
			"name":"Metallic-Roughness",
			"uri":"textures/Metallic-Roughness.png"
		},
		{
			"mimeType":"image/png",
			"name":"normals",
			"uri":"textures/normals-1.png"
		},
		{
			"mimeType":"image/png",
			"name":"Diffuse",
			"uri":"textures/Diffuse-1.png"
		},
		{
			"mimeType":"image/png",
			"name":"Roughness",
			"uri":"textures/Roughness.png"
		},
		{
			"mimeType":"image/png",
			"name":"Normals",
			"uri":"textures/Normals.png"
		},
		{
			"mimeType":"image/png",
			"name":"Bake Diffuse",
			"uri":"textures/Bake%20Diffuse.png"
		},
		{
			"mimeType":"image/png",
			"name":"Roughness",
			"uri":"textures/Roughness-1.png"
		}
	],
	"accessors":[
		{
			"bufferView":0,
			"componentType":5126,
			"count":5812,
			"max":[
				0.1316789984703064,
				0.06816589832305908,
				-0.004140470176935196
			],
			"min":[
				-0.16175100207328796,
				-0.06675010174512863,
				-0.6033409833908081
			],
			"type":"VEC3"
		},
		{
			"bufferView":1,
			"componentType":5126,
			"count":5812,
			"type":"VEC3"
		},
		{
			"bufferView":2,
			"componentType":5126,
			"count":5812,
			"type":"VEC2"
		},
		{
			"bufferView":3,
			"componentType":5123,
			"count":22950,
			"type":"SCALAR"
		},
		{
			"bufferView":4,
			"componentType":5126,
			"count":11425,
			"max":[
				0.20461054146289825,
				0.2269250452518463,
				0.44295734167099
			],
			"min":[
				-0.14476501941680908,
				-0.23862893879413605,
				-0.7686027884483337
			],
			"type":"VEC3"
		},
		{
			"bufferView":5,
			"componentType":5126,
			"count":11425,
			"type":"VEC3"
		},
		{
			"bufferView":6,
			"componentType":5126,
			"count":11425,
			"type":"VEC2"
		},
		{
			"bufferView":7,
			"componentType":5123,
			"count":51012,
			"type":"SCALAR"
		},
		{
			"bufferView":8,
			"componentType":5126,
			"count":10315,
			"max":[
				2.964409589767456,
				2.257922410964966,
				6.7474446296691895
			],
			"min":[
				-3.210050344467163,
				-2.1608476638793945,
				-8.100944519042969
			],
			"type":"VEC3"
		},
		{
			"bufferView":9,
			"componentType":5126,
			"count":10315,
			"type":"VEC3"
		},
		{
			"bufferView":10,
			"componentType":5126,
			"count":10315,
			"type":"VEC2"
		},
		{
			"bufferView":11,
			"componentType":5123,
			"count":48462,
			"type":"SCALAR"
		}
	],
	"bufferViews":[
		{
			"buffer":0,
			"byteLength":69744,
			"byteOffset":0,
			"target":34962
		},
		{
			"buffer":0,
			"byteLength":69744,
			"byteOffset":69744,
			"target":34962
		},
		{
			"buffer":0,
			"byteLength":46496,
			"byteOffset":139488,
			"target":34962
		},
		{
			"buffer":0,
			"byteLength":45900,
			"byteOffset":185984,
			"target":34963
		},
		{
			"buffer":0,
			"byteLength":137100,
			"byteOffset":231884,
			"target":34962
		},
		{
			"buffer":0,
			"byteLength":137100,
			"byteOffset":368984,
			"target":34962
		},
		{
			"buffer":0,
			"byteLength":91400,
			"byteOffset":506084,
			"target":34962
		},
		{
			"buffer":0,
			"byteLength":102024,
			"byteOffset":597484,
			"target":34963
		},
		{
			"buffer":0,
			"byteLength":123780,
			"byteOffset":699508,
			"target":34962
		},
		{
			"buffer":0,
			"byteLength":123780,
			"byteOffset":823288,
			"target":34962
		},
		{
			"buffer":0,
			"byteLength":82520,
			"byteOffset":947068,
			"target":34962
		},
		{
			"buffer":0,
			"byteLength":96924,
			"byteOffset":1029588,
			"target":34963
		}
	],
	"samplers":[
		{
			"magFilter":9729,
			"minFilter":9987
		}
	],
	"buffers":[
		{
			"byteLength":1126512,
			"uri":"animals-house-decoration-asset-pack.bin"
		}
	]
}
