{
	"asset":{
		"generator":"Khronos glTF Blender I/O v4.0.44",
		"version":"2.0"
	},
	"scene":0,
	"scenes":[
		{
			"name":"Scene",
			"nodes":[
				0
			]
		}
	],
	"nodes":[
		{
			"mesh":0,
			"name":"2019.10_EIGEN_6C4_geoid",
			"scale":[
				0.016025014221668243,
				0.016025014221668243,
				0.016025014221668243
			],
			"translation":[
				0,
				0.6741573810577393,
				0
			]
		}
	],
	"materials":[
		{
			"doubleSided":true,
			"name":"Material.001",
			"pbrMetallicRoughness":{
				"baseColorFactor":[
					0.18166856467723846,
					0.5646693706512451,
					0.7999992966651917,
					1
				],
				"metallicFactor":0,
				"roughnessFactor":0.5
			}
		}
	],
	"meshes":[
		{
			"name":"2019.10_EIGEN_6C4_geoid.001",
			"primitives":[
				{
					"attributes":{
						"POSITION":0,
						"NORMAL":1
					},
					"indices":2,
					"material":0
				}
			]
		}
	],
	"accessors":[
		{
			"bufferView":0,
			"componentType":5126,
			"count":5872012,
			"max":[
				40.85724639892578,
				43.10481262207031,
				32.6407585144043
			],
			"min":[
				-42.112159729003906,
				-40.88618469238281,
				-53.18759536743164
			],
			"type":"VEC3"
		},
		{
			"bufferView":1,
			"componentType":5126,
			"count":5872012,
			"type":"VEC3"
		},
		{
			"bufferView":2,
			"componentType":5125,
			"count":5898240,
			"type":"SCALAR"
		}
	],
	"bufferViews":[
		{
			"buffer":0,
			"byteLength":70464144,
			"byteOffset":0,
			"target":34962
		},
		{
			"buffer":0,
			"byteLength":70464144,
			"byteOffset":70464144,
			"target":34962
		},
		{
			"buffer":0,
			"byteLength":23592960,
			"byteOffset":140928288,
			"target":34963
		}
	],
	"buffers":[
		{
			"byteLength":164521248,
			"uri":"blueglobe.bin"
		}
	]
}
