{
	"asset":{
		"generator":"Khronos glTF Blender I/O v4.0.44",
		"version":"2.0"
	},
	"scene":0,
	"scenes":[
		{
			"name":"Scene",
			"nodes":[
				0,
				1
			]
		}
	],
	"nodes":[
		{
			"mesh":0,
			"name":"Cube.001",
			"scale":[
				0.10000000149011612,
				0.10000000149011612,
				0.10000000149011612
			],
			"translation":[
				0,
				50.12813949584961,
				0
			]
		},
		{
			"mesh":1,
			"name":"Cube"
		}
	],
	"materials":[
		{
			"name":"Default OBJ",
			"pbrMetallicRoughness":{
				"metallicFactor":0.25,
				"roughnessFactor":0.8999999761581421
			}
		},
		{
			"doubleSided":true,
			"name":"Material",
			"pbrMetallicRoughness":{
				"baseColorFactor":[
					0.800000011920929,
					0.800000011920929,
					0.800000011920929,
					1
				],
				"metallicFactor":0,
				"roughnessFactor":0.5
			}
		}
	],
	"meshes":[
		{
			"name":"Cube.002",
			"primitives":[
				{
					"attributes":{
						"POSITION":0,
						"NORMAL":1,
						"TEXCOORD_0":2
					},
					"indices":3,
					"material":0
				}
			]
		},
		{
			"name":"Cube",
			"primitives":[
				{
					"attributes":{
						"POSITION":4,
						"NORMAL":5,
						"TEXCOORD_0":6
					},
					"indices":7,
					"material":1
				}
			]
		}
	],
	"accessors":[
		{
			"bufferView":0,
			"componentType":5126,
			"count":100121,
			"max":[
				500,
				498.32342529296875,
				500
			],
			"min":[
				-499.9999694824219,
				-498.3235168457031,
				-500
			],
			"type":"VEC3"
		},
		{
			"bufferView":1,
			"componentType":5126,
			"count":100121,
			"type":"VEC3"
		},
		{
			"bufferView":2,
			"componentType":5126,
			"count":100121,
			"type":"VEC2"
		},
		{
			"bufferView":3,
			"componentType":5125,
			"count":589824,
			"type":"SCALAR"
		},
		{
			"bufferView":4,
			"componentType":5126,
			"count":24,
			"max":[
				1,
				1,
				1
			],
			"min":[
				-1,
				-1,
				-1
			],
			"type":"VEC3"
		},
		{
			"bufferView":5,
			"componentType":5126,
			"count":24,
			"type":"VEC3"
		},
		{
			"bufferView":6,
			"componentType":5126,
			"count":24,
			"type":"VEC2"
		},
		{
			"bufferView":7,
			"componentType":5123,
			"count":36,
			"type":"SCALAR"
		}
	],
	"bufferViews":[
		{
			"buffer":0,
			"byteLength":1201452,
			"byteOffset":0,
			"target":34962
		},
		{
			"buffer":0,
			"byteLength":1201452,
			"byteOffset":1201452,
			"target":34962
		},
		{
			"buffer":0,
			"byteLength":800968,
			"byteOffset":2402904,
			"target":34962
		},
		{
			"buffer":0,
			"byteLength":2359296,
			"byteOffset":3203872,
			"target":34963
		},
		{
			"buffer":0,
			"byteLength":288,
			"byteOffset":5563168,
			"target":34962
		},
		{
			"buffer":0,
			"byteLength":288,
			"byteOffset":5563456,
			"target":34962
		},
		{
			"buffer":0,
			"byteLength":192,
			"byteOffset":5563744,
			"target":34962
		},
		{
			"buffer":0,
			"byteLength":72,
			"byteOffset":5563936,
			"target":34963
		}
	],
	"buffers":[
		{
			"byteLength":5564008,
			"uri":"globe.bin"
		}
	]
}
