{
	"asset":{
		"generator":"Khronos glTF Blender I/O v4.0.44",
		"version":"2.0"
	},
	"scene":0,
	"scenes":[
		{
			"name":"Scene",
			"nodes":[
				3,
				4
			]
		}
	],
	"nodes":[
		{
			"mesh":0,
			"name":"Mesh_0",
			"translation":[
				0.015888262540102005,
				-0.22617343068122864,
				-0.03427429497241974
			]
		},
		{
			"children":[
				0
			],
			"name":"Musca_domestica_2.obj.cleaner.materialmerger.gles"
		},
		{
			"children":[
				1
			],
			"name":"RootNode (model correction matrix)",
			"rotation":[
				-0.7576466202735901,
				-0.026578878983855247,
				-0.022862980142235756,
				0.6517226696014404
			],
			"translation":[
				-0.07448603957891464,
				1.5996347665786743,
				0.60873943567276
			]
		},
		{
			"children":[
				2
			],
			"name":"RootNode (gltf orientation matrix)",
			"rotation":[
				-0.70710688829422,
				0,
				0,
				0.7071066498756409
			]
		},
		{
			"mesh":1,
			"name":"Cube"
		}
	],
	"materials":[
		{
			"doubleSided":true,
			"name":"Musca_domestica_2.1001",
			"pbrMetallicRoughness":{}
		},
		{
			"doubleSided":true,
			"name":"Material",
			"pbrMetallicRoughness":{
				"baseColorFactor":[
					0.800000011920929,
					0.800000011920929,
					0.800000011920929,
					1
				],
				"metallicFactor":0,
				"roughnessFactor":0.5
			}
		}
	],
	"meshes":[
		{
			"name":"Mesh_0",
			"primitives":[
				{
					"attributes":{
						"POSITION":0,
						"NORMAL":1,
						"TEXCOORD_0":2
					},
					"indices":3,
					"material":0
				}
			]
		},
		{
			"name":"Cube",
			"primitives":[
				{
					"attributes":{
						"POSITION":4,
						"NORMAL":5,
						"TEXCOORD_0":6
					},
					"indices":7,
					"material":1
				}
			]
		}
	],
	"accessors":[
		{
			"bufferView":0,
			"componentType":5126,
			"count":53502,
			"max":[
				3.620115041732788,
				3.82592511177063,
				3.0531389713287354
			],
			"min":[
				-4.7470598220825195,
				-1.739577054977417,
				-3.85214900970459
			],
			"type":"VEC3"
		},
		{
			"bufferView":1,
			"componentType":5126,
			"count":53502,
			"type":"VEC3"
		},
		{
			"bufferView":2,
			"componentType":5126,
			"count":53502,
			"type":"VEC2"
		},
		{
			"bufferView":3,
			"componentType":5123,
			"count":290448,
			"type":"SCALAR"
		},
		{
			"bufferView":4,
			"componentType":5126,
			"count":24,
			"max":[
				1,
				1,
				1
			],
			"min":[
				-1,
				-1,
				-1
			],
			"type":"VEC3"
		},
		{
			"bufferView":5,
			"componentType":5126,
			"count":24,
			"type":"VEC3"
		},
		{
			"bufferView":6,
			"componentType":5126,
			"count":24,
			"type":"VEC2"
		},
		{
			"bufferView":7,
			"componentType":5123,
			"count":36,
			"type":"SCALAR"
		}
	],
	"bufferViews":[
		{
			"buffer":0,
			"byteLength":642024,
			"byteOffset":0,
			"target":34962
		},
		{
			"buffer":0,
			"byteLength":642024,
			"byteOffset":642024,
			"target":34962
		},
		{
			"buffer":0,
			"byteLength":428016,
			"byteOffset":1284048,
			"target":34962
		},
		{
			"buffer":0,
			"byteLength":580896,
			"byteOffset":1712064,
			"target":34963
		},
		{
			"buffer":0,
			"byteLength":288,
			"byteOffset":2292960,
			"target":34962
		},
		{
			"buffer":0,
			"byteLength":288,
			"byteOffset":2293248,
			"target":34962
		},
		{
			"buffer":0,
			"byteLength":192,
			"byteOffset":2293536,
			"target":34962
		},
		{
			"buffer":0,
			"byteLength":72,
			"byteOffset":2293728,
			"target":34963
		}
	],
	"buffers":[
		{
			"byteLength":2293800,
			"uri":"scene.bin"
		}
	]
}
